%TF.GenerationSoftware,KiCad,Pcbnew,(5.1.6)-1*%
%TF.CreationDate,2020-12-22T11:19:17+01:00*%
%TF.ProjectId,Addierer,41646469-6572-4657-922e-6b696361645f,rev?*%
%TF.SameCoordinates,Original*%
%TF.FileFunction,Soldermask,Bot*%
%TF.FilePolarity,Negative*%
%FSLAX46Y46*%
G04 Gerber Fmt 4.6, Leading zero omitted, Abs format (unit mm)*
G04 Created by KiCad (PCBNEW (5.1.6)-1) date 2020-12-22 11:19:17*
%MOMM*%
%LPD*%
G01*
G04 APERTURE LIST*
%ADD10R,2.100000X2.100000*%
%ADD11O,1.700000X1.700000*%
%ADD12C,1.700000*%
%ADD13R,1.700000X1.700000*%
G04 APERTURE END LIST*
D10*
%TO.C,GND*%
X60452000Y-99568000D03*
%TD*%
%TO.C,GND*%
X57150000Y-99568000D03*
%TD*%
%TO.C,Vcc*%
X60452000Y-94996000D03*
%TD*%
%TO.C,Vcc*%
X57150000Y-94996000D03*
%TD*%
%TO.C,a1*%
X70866000Y-94996000D03*
%TD*%
%TO.C,a2*%
X92202000Y-94996000D03*
%TD*%
%TO.C,a3*%
X113792000Y-94996000D03*
%TD*%
%TO.C,a4*%
X133858000Y-94996000D03*
%TD*%
%TO.C,b1*%
X165354000Y-94996000D03*
%TD*%
%TO.C,b2*%
X165354000Y-100838000D03*
%TD*%
%TO.C,b3*%
X165354000Y-106934000D03*
%TD*%
%TO.C,b4*%
X165354000Y-113030000D03*
%TD*%
%TO.C,GND*%
X53848000Y-99568000D03*
%TD*%
D11*
%TO.C,R1*%
X76200000Y-104902000D03*
D12*
X76200000Y-112522000D03*
%TD*%
D11*
%TO.C,R3*%
X97282000Y-104902000D03*
D12*
X97282000Y-112522000D03*
%TD*%
%TO.C,R5*%
X118618000Y-112522000D03*
D11*
X118618000Y-104902000D03*
%TD*%
D12*
%TO.C,R7*%
X139192000Y-112522000D03*
D11*
X139192000Y-104902000D03*
%TD*%
D12*
%TO.C,R8*%
X151130000Y-112014000D03*
D11*
X151130000Y-104394000D03*
%TD*%
D10*
%TO.C,S1*%
X76200000Y-94996000D03*
%TD*%
%TO.C,S2*%
X97282000Y-94996000D03*
%TD*%
%TO.C,S3*%
X118618000Y-94996000D03*
%TD*%
%TO.C,S4*%
X138938000Y-94996000D03*
%TD*%
D13*
%TO.C,U1*%
X46736000Y-125476000D03*
D11*
X54356000Y-140716000D03*
X46736000Y-128016000D03*
X54356000Y-138176000D03*
X46736000Y-130556000D03*
X54356000Y-135636000D03*
X46736000Y-133096000D03*
X54356000Y-133096000D03*
X46736000Y-135636000D03*
X54356000Y-130556000D03*
X46736000Y-138176000D03*
X54356000Y-128016000D03*
X46736000Y-140716000D03*
X54356000Y-125476000D03*
%TD*%
D13*
%TO.C,U2*%
X60706000Y-125476000D03*
D11*
X68326000Y-140716000D03*
X60706000Y-128016000D03*
X68326000Y-138176000D03*
X60706000Y-130556000D03*
X68326000Y-135636000D03*
X60706000Y-133096000D03*
X68326000Y-133096000D03*
X60706000Y-135636000D03*
X68326000Y-130556000D03*
X60706000Y-138176000D03*
X68326000Y-128016000D03*
X60706000Y-140716000D03*
X68326000Y-125476000D03*
%TD*%
%TO.C,U3*%
X82550000Y-125476000D03*
X74930000Y-140716000D03*
X82550000Y-128016000D03*
X74930000Y-138176000D03*
X82550000Y-130556000D03*
X74930000Y-135636000D03*
X82550000Y-133096000D03*
X74930000Y-133096000D03*
X82550000Y-135636000D03*
X74930000Y-130556000D03*
X82550000Y-138176000D03*
X74930000Y-128016000D03*
X82550000Y-140716000D03*
D13*
X74930000Y-125476000D03*
%TD*%
D11*
%TO.C,U4*%
X96774000Y-125476000D03*
X89154000Y-140716000D03*
X96774000Y-128016000D03*
X89154000Y-138176000D03*
X96774000Y-130556000D03*
X89154000Y-135636000D03*
X96774000Y-133096000D03*
X89154000Y-133096000D03*
X96774000Y-135636000D03*
X89154000Y-130556000D03*
X96774000Y-138176000D03*
X89154000Y-128016000D03*
X96774000Y-140716000D03*
D13*
X89154000Y-125476000D03*
%TD*%
%TO.C,U5*%
X103378000Y-125476000D03*
D11*
X110998000Y-140716000D03*
X103378000Y-128016000D03*
X110998000Y-138176000D03*
X103378000Y-130556000D03*
X110998000Y-135636000D03*
X103378000Y-133096000D03*
X110998000Y-133096000D03*
X103378000Y-135636000D03*
X110998000Y-130556000D03*
X103378000Y-138176000D03*
X110998000Y-128016000D03*
X103378000Y-140716000D03*
X110998000Y-125476000D03*
%TD*%
%TO.C,U6*%
X125222000Y-125476000D03*
X117602000Y-140716000D03*
X125222000Y-128016000D03*
X117602000Y-138176000D03*
X125222000Y-130556000D03*
X117602000Y-135636000D03*
X125222000Y-133096000D03*
X117602000Y-133096000D03*
X125222000Y-135636000D03*
X117602000Y-130556000D03*
X125222000Y-138176000D03*
X117602000Y-128016000D03*
X125222000Y-140716000D03*
D13*
X117602000Y-125476000D03*
%TD*%
%TO.C,U7*%
X131826000Y-125476000D03*
D11*
X139446000Y-140716000D03*
X131826000Y-128016000D03*
X139446000Y-138176000D03*
X131826000Y-130556000D03*
X139446000Y-135636000D03*
X131826000Y-133096000D03*
X139446000Y-133096000D03*
X131826000Y-135636000D03*
X139446000Y-130556000D03*
X131826000Y-138176000D03*
X139446000Y-128016000D03*
X131826000Y-140716000D03*
X139446000Y-125476000D03*
%TD*%
%TO.C,U8*%
X153670000Y-125476000D03*
X146050000Y-140716000D03*
X153670000Y-128016000D03*
X146050000Y-138176000D03*
X153670000Y-130556000D03*
X146050000Y-135636000D03*
X153670000Y-133096000D03*
X146050000Y-133096000D03*
X153670000Y-135636000D03*
X146050000Y-130556000D03*
X153670000Y-138176000D03*
X146050000Y-128016000D03*
X153670000Y-140716000D03*
D13*
X146050000Y-125476000D03*
%TD*%
%TO.C,U9*%
X160020000Y-125476000D03*
D11*
X167640000Y-140716000D03*
X160020000Y-128016000D03*
X167640000Y-138176000D03*
X160020000Y-130556000D03*
X167640000Y-135636000D03*
X160020000Y-133096000D03*
X167640000Y-133096000D03*
X160020000Y-135636000D03*
X167640000Y-130556000D03*
X160020000Y-138176000D03*
X167640000Y-128016000D03*
X160020000Y-140716000D03*
X167640000Y-125476000D03*
%TD*%
%TO.C,U10*%
X181102000Y-125476000D03*
X173482000Y-140716000D03*
X181102000Y-128016000D03*
X173482000Y-138176000D03*
X181102000Y-130556000D03*
X173482000Y-135636000D03*
X181102000Y-133096000D03*
X173482000Y-133096000D03*
X181102000Y-135636000D03*
X173482000Y-130556000D03*
X181102000Y-138176000D03*
X173482000Y-128016000D03*
X181102000Y-140716000D03*
D13*
X173482000Y-125476000D03*
%TD*%
D10*
%TO.C,U11*%
X157988000Y-94996000D03*
%TD*%
D13*
%TO.C,U12*%
X172466000Y-96012000D03*
D11*
X180086000Y-111252000D03*
X172466000Y-98552000D03*
X180086000Y-108712000D03*
X172466000Y-101092000D03*
X180086000Y-106172000D03*
X172466000Y-103632000D03*
X180086000Y-103632000D03*
X172466000Y-106172000D03*
X180086000Y-101092000D03*
X172466000Y-108712000D03*
X180086000Y-98552000D03*
X172466000Y-111252000D03*
X180086000Y-96012000D03*
%TD*%
D10*
%TO.C,Vcc*%
X53848000Y-94996000D03*
%TD*%
%TO.C,\u00DCn+4*%
X151384000Y-94996000D03*
%TD*%
M02*
