%TF.GenerationSoftware,KiCad,Pcbnew,(5.1.6)-1*%
%TF.CreationDate,2020-12-22T11:19:16+01:00*%
%TF.ProjectId,Addierer,41646469-6572-4657-922e-6b696361645f,rev?*%
%TF.SameCoordinates,Original*%
%TF.FileFunction,Copper,L2,Bot*%
%TF.FilePolarity,Positive*%
%FSLAX46Y46*%
G04 Gerber Fmt 4.6, Leading zero omitted, Abs format (unit mm)*
G04 Created by KiCad (PCBNEW (5.1.6)-1) date 2020-12-22 11:19:16*
%MOMM*%
%LPD*%
G01*
G04 APERTURE LIST*
%TA.AperFunction,ComponentPad*%
%ADD10R,2.000000X2.000000*%
%TD*%
%TA.AperFunction,ComponentPad*%
%ADD11O,1.600000X1.600000*%
%TD*%
%TA.AperFunction,ComponentPad*%
%ADD12C,1.600000*%
%TD*%
%TA.AperFunction,ComponentPad*%
%ADD13R,1.600000X1.600000*%
%TD*%
%TA.AperFunction,ViaPad*%
%ADD14C,0.800000*%
%TD*%
%TA.AperFunction,Conductor*%
%ADD15C,0.250000*%
%TD*%
G04 APERTURE END LIST*
D10*
%TO.P,GND,1*%
%TO.N,Net-(GND1-Pad1)*%
X60452000Y-99568000D03*
%TD*%
%TO.P,GND,1*%
%TO.N,Net-(GND1-Pad1)*%
X57150000Y-99568000D03*
%TD*%
%TO.P,Vcc,1*%
%TO.N,+5V*%
X60452000Y-94996000D03*
%TD*%
%TO.P,Vcc,1*%
%TO.N,+5V*%
X57150000Y-94996000D03*
%TD*%
%TO.P,a1,1*%
%TO.N,Net-(U1-Pad1)*%
X70866000Y-94996000D03*
%TD*%
%TO.P,a2,1*%
%TO.N,Net-(U3-Pad4)*%
X92202000Y-94996000D03*
%TD*%
%TO.P,a3,1*%
%TO.N,Net-(U5-Pad12)*%
X113792000Y-94996000D03*
%TD*%
%TO.P,a4,1*%
%TO.N,Net-(U8-Pad12)*%
X133858000Y-94996000D03*
%TD*%
%TO.P,b1,1*%
%TO.N,Net-(U12-Pad1)*%
X165354000Y-94996000D03*
%TD*%
%TO.P,b2,1*%
%TO.N,Net-(U12-Pad4)*%
X165354000Y-100838000D03*
%TD*%
%TO.P,b3,1*%
%TO.N,Net-(U12-Pad9)*%
X165354000Y-106934000D03*
%TD*%
%TO.P,b4,1*%
%TO.N,Net-(U12-Pad12)*%
X165354000Y-113030000D03*
%TD*%
%TO.P,GND,1*%
%TO.N,Net-(GND1-Pad1)*%
X53848000Y-99568000D03*
%TD*%
D11*
%TO.P,R1,2*%
%TO.N,Net-(R1-Pad2)*%
X76200000Y-104902000D03*
D12*
%TO.P,R1,1*%
%TO.N,Net-(R1-Pad1)*%
X76200000Y-112522000D03*
%TD*%
D11*
%TO.P,R3,2*%
%TO.N,Net-(R3-Pad2)*%
X97282000Y-104902000D03*
D12*
%TO.P,R3,1*%
%TO.N,Net-(R3-Pad1)*%
X97282000Y-112522000D03*
%TD*%
%TO.P,R5,1*%
%TO.N,Net-(R5-Pad1)*%
X118618000Y-112522000D03*
D11*
%TO.P,R5,2*%
%TO.N,Net-(R5-Pad2)*%
X118618000Y-104902000D03*
%TD*%
D12*
%TO.P,R7,1*%
%TO.N,Net-(R7-Pad1)*%
X139192000Y-112522000D03*
D11*
%TO.P,R7,2*%
%TO.N,Net-(R7-Pad2)*%
X139192000Y-104902000D03*
%TD*%
D12*
%TO.P,R8,1*%
%TO.N,Net-(R8-Pad1)*%
X151130000Y-112014000D03*
D11*
%TO.P,R8,2*%
%TO.N,Net-(R8-Pad2)*%
X151130000Y-104394000D03*
%TD*%
D10*
%TO.P,S1,1*%
%TO.N,Net-(R1-Pad2)*%
X76200000Y-94996000D03*
%TD*%
%TO.P,S2,1*%
%TO.N,Net-(R3-Pad2)*%
X97282000Y-94996000D03*
%TD*%
%TO.P,S3,1*%
%TO.N,Net-(R5-Pad2)*%
X118618000Y-94996000D03*
%TD*%
%TO.P,S4,1*%
%TO.N,Net-(R7-Pad2)*%
X138938000Y-94996000D03*
%TD*%
D13*
%TO.P,U1,1*%
%TO.N,Net-(U1-Pad1)*%
X46736000Y-125476000D03*
D11*
%TO.P,U1,8*%
%TO.N,Net-(U1-Pad13)*%
X54356000Y-140716000D03*
%TO.P,U1,2*%
%TO.N,Net-(U1-Pad2)*%
X46736000Y-128016000D03*
%TO.P,U1,9*%
X54356000Y-138176000D03*
%TO.P,U1,3*%
%TO.N,Net-(U1-Pad10)*%
X46736000Y-130556000D03*
%TO.P,U1,10*%
X54356000Y-135636000D03*
%TO.P,U1,4*%
%TO.N,Net-(U1-Pad1)*%
X46736000Y-133096000D03*
%TO.P,U1,11*%
%TO.N,Net-(U1-Pad11)*%
X54356000Y-133096000D03*
%TO.P,U1,5*%
%TO.N,Net-(U1-Pad10)*%
X46736000Y-135636000D03*
%TO.P,U1,12*%
%TO.N,Net-(U1-Pad12)*%
X54356000Y-130556000D03*
%TO.P,U1,6*%
X46736000Y-138176000D03*
%TO.P,U1,13*%
%TO.N,Net-(U1-Pad13)*%
X54356000Y-128016000D03*
%TO.P,U1,7*%
%TO.N,Net-(GND1-Pad1)*%
X46736000Y-140716000D03*
%TO.P,U1,14*%
%TO.N,+5V*%
X54356000Y-125476000D03*
%TD*%
D13*
%TO.P,U2,1*%
%TO.N,Net-(U1-Pad11)*%
X60706000Y-125476000D03*
D11*
%TO.P,U2,8*%
%TO.N,Net-(U2-Pad13)*%
X68326000Y-140716000D03*
%TO.P,U2,2*%
%TO.N,Net-(U11-Pad1)*%
X60706000Y-128016000D03*
%TO.P,U2,9*%
%TO.N,Net-(U2-Pad3)*%
X68326000Y-138176000D03*
%TO.P,U2,3*%
X60706000Y-130556000D03*
%TO.P,U2,10*%
%TO.N,Net-(U11-Pad1)*%
X68326000Y-135636000D03*
%TO.P,U2,4*%
%TO.N,Net-(U1-Pad11)*%
X60706000Y-133096000D03*
%TO.P,U2,11*%
%TO.N,Net-(R1-Pad1)*%
X68326000Y-133096000D03*
%TO.P,U2,5*%
%TO.N,Net-(U2-Pad3)*%
X60706000Y-135636000D03*
%TO.P,U2,12*%
%TO.N,Net-(U2-Pad12)*%
X68326000Y-130556000D03*
%TO.P,U2,6*%
X60706000Y-138176000D03*
%TO.P,U2,13*%
%TO.N,Net-(U2-Pad13)*%
X68326000Y-128016000D03*
%TO.P,U2,7*%
%TO.N,Net-(GND1-Pad1)*%
X60706000Y-140716000D03*
%TO.P,U2,14*%
%TO.N,+5V*%
X68326000Y-125476000D03*
%TD*%
%TO.P,U3,14*%
%TO.N,+5V*%
X82550000Y-125476000D03*
%TO.P,U3,7*%
%TO.N,Net-(GND1-Pad1)*%
X74930000Y-140716000D03*
%TO.P,U3,13*%
%TO.N,Net-(U12-Pad6)*%
X82550000Y-128016000D03*
%TO.P,U3,6*%
%TO.N,Net-(U3-Pad10)*%
X74930000Y-138176000D03*
%TO.P,U3,12*%
X82550000Y-130556000D03*
%TO.P,U3,5*%
%TO.N,Net-(U12-Pad6)*%
X74930000Y-135636000D03*
%TO.P,U3,11*%
%TO.N,Net-(U3-Pad11)*%
X82550000Y-133096000D03*
%TO.P,U3,4*%
%TO.N,Net-(U3-Pad4)*%
X74930000Y-133096000D03*
%TO.P,U3,10*%
%TO.N,Net-(U3-Pad10)*%
X82550000Y-135636000D03*
%TO.P,U3,3*%
%TO.N,Net-(U3-Pad3)*%
X74930000Y-130556000D03*
%TO.P,U3,9*%
%TO.N,Net-(U3-Pad4)*%
X82550000Y-138176000D03*
%TO.P,U3,2*%
%TO.N,Net-(U1-Pad10)*%
X74930000Y-128016000D03*
%TO.P,U3,8*%
%TO.N,Net-(U3-Pad8)*%
X82550000Y-140716000D03*
D13*
%TO.P,U3,1*%
%TO.N,Net-(U2-Pad3)*%
X74930000Y-125476000D03*
%TD*%
D11*
%TO.P,U4,14*%
%TO.N,+5V*%
X96774000Y-125476000D03*
%TO.P,U4,7*%
%TO.N,Net-(GND1-Pad1)*%
X89154000Y-140716000D03*
%TO.P,U4,13*%
%TO.N,Net-(U3-Pad3)*%
X96774000Y-128016000D03*
%TO.P,U4,6*%
%TO.N,Net-(U4-Pad10)*%
X89154000Y-138176000D03*
%TO.P,U4,12*%
X96774000Y-130556000D03*
%TO.P,U4,5*%
%TO.N,Net-(U3-Pad3)*%
X89154000Y-135636000D03*
%TO.P,U4,11*%
%TO.N,Net-(U4-Pad11)*%
X96774000Y-133096000D03*
%TO.P,U4,4*%
%TO.N,Net-(U4-Pad3)*%
X89154000Y-133096000D03*
%TO.P,U4,10*%
%TO.N,Net-(U4-Pad10)*%
X96774000Y-135636000D03*
%TO.P,U4,3*%
%TO.N,Net-(U4-Pad3)*%
X89154000Y-130556000D03*
%TO.P,U4,9*%
X96774000Y-138176000D03*
%TO.P,U4,2*%
%TO.N,Net-(U3-Pad11)*%
X89154000Y-128016000D03*
%TO.P,U4,8*%
%TO.N,Net-(U4-Pad8)*%
X96774000Y-140716000D03*
D13*
%TO.P,U4,1*%
%TO.N,Net-(U3-Pad8)*%
X89154000Y-125476000D03*
%TD*%
%TO.P,U5,1*%
%TO.N,Net-(U4-Pad8)*%
X103378000Y-125476000D03*
D11*
%TO.P,U5,8*%
%TO.N,Net-(U5-Pad13)*%
X110998000Y-140716000D03*
%TO.P,U5,2*%
%TO.N,Net-(U4-Pad11)*%
X103378000Y-128016000D03*
%TO.P,U5,9*%
%TO.N,Net-(U5-Pad12)*%
X110998000Y-138176000D03*
%TO.P,U5,3*%
%TO.N,Net-(R3-Pad1)*%
X103378000Y-130556000D03*
%TO.P,U5,10*%
%TO.N,Net-(U12-Pad8)*%
X110998000Y-135636000D03*
%TO.P,U5,4*%
%TO.N,Net-(U4-Pad10)*%
X103378000Y-133096000D03*
%TO.P,U5,11*%
%TO.N,Net-(U5-Pad11)*%
X110998000Y-133096000D03*
%TO.P,U5,5*%
%TO.N,Net-(U3-Pad10)*%
X103378000Y-135636000D03*
%TO.P,U5,12*%
%TO.N,Net-(U5-Pad12)*%
X110998000Y-130556000D03*
%TO.P,U5,6*%
%TO.N,Net-(U5-Pad6)*%
X103378000Y-138176000D03*
%TO.P,U5,13*%
%TO.N,Net-(U5-Pad13)*%
X110998000Y-128016000D03*
%TO.P,U5,7*%
%TO.N,Net-(GND1-Pad1)*%
X103378000Y-140716000D03*
%TO.P,U5,14*%
%TO.N,+5V*%
X110998000Y-125476000D03*
%TD*%
%TO.P,U6,14*%
%TO.N,+5V*%
X125222000Y-125476000D03*
%TO.P,U6,7*%
%TO.N,Net-(GND1-Pad1)*%
X117602000Y-140716000D03*
%TO.P,U6,13*%
%TO.N,N/C*%
X125222000Y-128016000D03*
%TO.P,U6,6*%
%TO.N,Net-(U6-Pad6)*%
X117602000Y-138176000D03*
%TO.P,U6,12*%
%TO.N,N/C*%
X125222000Y-130556000D03*
%TO.P,U6,5*%
%TO.N,Net-(U6-Pad3)*%
X117602000Y-135636000D03*
%TO.P,U6,11*%
%TO.N,N/C*%
X125222000Y-133096000D03*
%TO.P,U6,4*%
%TO.N,Net-(U5-Pad11)*%
X117602000Y-133096000D03*
%TO.P,U6,10*%
%TO.N,N/C*%
X125222000Y-135636000D03*
%TO.P,U6,3*%
%TO.N,Net-(U6-Pad3)*%
X117602000Y-130556000D03*
%TO.P,U6,9*%
%TO.N,N/C*%
X125222000Y-138176000D03*
%TO.P,U6,2*%
%TO.N,Net-(U5-Pad13)*%
X117602000Y-128016000D03*
%TO.P,U6,8*%
%TO.N,N/C*%
X125222000Y-140716000D03*
D13*
%TO.P,U6,1*%
%TO.N,Net-(U12-Pad8)*%
X117602000Y-125476000D03*
%TD*%
%TO.P,U7,1*%
%TO.N,N/C*%
X131826000Y-125476000D03*
D11*
%TO.P,U7,8*%
%TO.N,Net-(U7-Pad13)*%
X139446000Y-140716000D03*
%TO.P,U7,2*%
%TO.N,N/C*%
X131826000Y-128016000D03*
%TO.P,U7,9*%
%TO.N,Net-(U6-Pad6)*%
X139446000Y-138176000D03*
%TO.P,U7,3*%
%TO.N,N/C*%
X131826000Y-130556000D03*
%TO.P,U7,10*%
%TO.N,Net-(U5-Pad6)*%
X139446000Y-135636000D03*
%TO.P,U7,4*%
%TO.N,N/C*%
X131826000Y-133096000D03*
%TO.P,U7,11*%
%TO.N,Net-(U7-Pad11)*%
X139446000Y-133096000D03*
%TO.P,U7,5*%
%TO.N,N/C*%
X131826000Y-135636000D03*
%TO.P,U7,12*%
%TO.N,Net-(U6-Pad6)*%
X139446000Y-130556000D03*
%TO.P,U7,6*%
%TO.N,N/C*%
X131826000Y-138176000D03*
%TO.P,U7,13*%
%TO.N,Net-(U7-Pad13)*%
X139446000Y-128016000D03*
%TO.P,U7,7*%
%TO.N,Net-(GND1-Pad1)*%
X131826000Y-140716000D03*
%TO.P,U7,14*%
%TO.N,+5V*%
X139446000Y-125476000D03*
%TD*%
%TO.P,U8,14*%
%TO.N,+5V*%
X153670000Y-125476000D03*
%TO.P,U8,7*%
%TO.N,Net-(GND1-Pad1)*%
X146050000Y-140716000D03*
%TO.P,U8,13*%
%TO.N,Net-(U12-Pad11)*%
X153670000Y-128016000D03*
%TO.P,U8,6*%
%TO.N,Net-(R5-Pad1)*%
X146050000Y-138176000D03*
%TO.P,U8,12*%
%TO.N,Net-(U8-Pad12)*%
X153670000Y-130556000D03*
%TO.P,U8,5*%
%TO.N,Net-(U8-Pad3)*%
X146050000Y-135636000D03*
%TO.P,U8,11*%
%TO.N,Net-(U10-Pad13)*%
X153670000Y-133096000D03*
%TO.P,U8,4*%
%TO.N,Net-(U7-Pad11)*%
X146050000Y-133096000D03*
%TO.P,U8,10*%
%TO.N,Net-(U5-Pad13)*%
X153670000Y-135636000D03*
%TO.P,U8,3*%
%TO.N,Net-(U8-Pad3)*%
X146050000Y-130556000D03*
%TO.P,U8,9*%
%TO.N,Net-(U7-Pad13)*%
X153670000Y-138176000D03*
%TO.P,U8,2*%
%TO.N,Net-(U5-Pad6)*%
X146050000Y-128016000D03*
%TO.P,U8,8*%
%TO.N,Net-(U10-Pad5)*%
X153670000Y-140716000D03*
D13*
%TO.P,U8,1*%
%TO.N,Net-(U7-Pad13)*%
X146050000Y-125476000D03*
%TD*%
%TO.P,U9,1*%
%TO.N,Net-(U8-Pad12)*%
X160020000Y-125476000D03*
D11*
%TO.P,U9,8*%
%TO.N,Net-(U10-Pad1)*%
X167640000Y-140716000D03*
%TO.P,U9,2*%
%TO.N,Net-(U10-Pad13)*%
X160020000Y-128016000D03*
%TO.P,U9,9*%
%TO.N,Net-(U9-Pad3)*%
X167640000Y-138176000D03*
%TO.P,U9,3*%
X160020000Y-130556000D03*
%TO.P,U9,10*%
%TO.N,Net-(U9-Pad10)*%
X167640000Y-135636000D03*
%TO.P,U9,4*%
%TO.N,Net-(U10-Pad13)*%
X160020000Y-133096000D03*
%TO.P,U9,11*%
%TO.N,Net-(U10-Pad12)*%
X167640000Y-133096000D03*
%TO.P,U9,5*%
%TO.N,Net-(U12-Pad11)*%
X160020000Y-135636000D03*
%TO.P,U9,12*%
%TO.N,Net-(U10-Pad1)*%
X167640000Y-130556000D03*
%TO.P,U9,6*%
%TO.N,Net-(U9-Pad10)*%
X160020000Y-138176000D03*
%TO.P,U9,13*%
%TO.N,Net-(U10-Pad5)*%
X167640000Y-128016000D03*
%TO.P,U9,7*%
%TO.N,Net-(GND1-Pad1)*%
X160020000Y-140716000D03*
%TO.P,U9,14*%
%TO.N,+5V*%
X167640000Y-125476000D03*
%TD*%
%TO.P,U10,14*%
%TO.N,+5V*%
X181102000Y-125476000D03*
%TO.P,U10,7*%
%TO.N,Net-(GND1-Pad1)*%
X173482000Y-140716000D03*
%TO.P,U10,13*%
%TO.N,Net-(U10-Pad13)*%
X181102000Y-128016000D03*
%TO.P,U10,6*%
%TO.N,Net-(U10-Pad10)*%
X173482000Y-138176000D03*
%TO.P,U10,12*%
%TO.N,Net-(U10-Pad12)*%
X181102000Y-130556000D03*
%TO.P,U10,5*%
%TO.N,Net-(U10-Pad5)*%
X173482000Y-135636000D03*
%TO.P,U10,11*%
%TO.N,Net-(R8-Pad1)*%
X181102000Y-133096000D03*
%TO.P,U10,4*%
%TO.N,Net-(U10-Pad12)*%
X173482000Y-133096000D03*
%TO.P,U10,10*%
%TO.N,Net-(U10-Pad10)*%
X181102000Y-135636000D03*
%TO.P,U10,3*%
%TO.N,Net-(U10-Pad3)*%
X173482000Y-130556000D03*
%TO.P,U10,9*%
X181102000Y-138176000D03*
%TO.P,U10,2*%
%TO.N,Net-(U10-Pad12)*%
X173482000Y-128016000D03*
%TO.P,U10,8*%
%TO.N,Net-(R7-Pad1)*%
X181102000Y-140716000D03*
D13*
%TO.P,U10,1*%
%TO.N,Net-(U10-Pad1)*%
X173482000Y-125476000D03*
%TD*%
D10*
%TO.P,U11,1*%
%TO.N,Net-(U11-Pad1)*%
X157988000Y-94996000D03*
%TD*%
D13*
%TO.P,U12,1*%
%TO.N,Net-(U12-Pad1)*%
X172466000Y-96012000D03*
D11*
%TO.P,U12,8*%
%TO.N,Net-(U12-Pad8)*%
X180086000Y-111252000D03*
%TO.P,U12,2*%
%TO.N,Net-(U11-Pad1)*%
X172466000Y-98552000D03*
%TO.P,U12,9*%
%TO.N,Net-(U12-Pad9)*%
X180086000Y-108712000D03*
%TO.P,U12,3*%
%TO.N,Net-(U1-Pad2)*%
X172466000Y-101092000D03*
%TO.P,U12,10*%
%TO.N,Net-(U11-Pad1)*%
X180086000Y-106172000D03*
%TO.P,U12,4*%
%TO.N,Net-(U12-Pad4)*%
X172466000Y-103632000D03*
%TO.P,U12,11*%
%TO.N,Net-(U12-Pad11)*%
X180086000Y-103632000D03*
%TO.P,U12,5*%
%TO.N,Net-(U11-Pad1)*%
X172466000Y-106172000D03*
%TO.P,U12,12*%
%TO.N,Net-(U12-Pad12)*%
X180086000Y-101092000D03*
%TO.P,U12,6*%
%TO.N,Net-(U12-Pad6)*%
X172466000Y-108712000D03*
%TO.P,U12,13*%
%TO.N,Net-(U11-Pad1)*%
X180086000Y-98552000D03*
%TO.P,U12,7*%
%TO.N,Net-(GND1-Pad1)*%
X172466000Y-111252000D03*
%TO.P,U12,14*%
%TO.N,+5V*%
X180086000Y-96012000D03*
%TD*%
D10*
%TO.P,Vcc,1*%
%TO.N,+5V*%
X53848000Y-94996000D03*
%TD*%
%TO.P,\u00DCn+4,1*%
%TO.N,Net-(R8-Pad2)*%
X151384000Y-94996000D03*
%TD*%
D14*
%TO.N,Net-(R1-Pad1)*%
X71628000Y-119888000D03*
%TO.N,Net-(U1-Pad12)*%
X49784000Y-132080000D03*
%TO.N,Net-(U3-Pad4)*%
X78994000Y-119888000D03*
%TO.N,Net-(U3-Pad10)*%
X86360000Y-144780000D03*
X94742000Y-144780000D03*
%TO.N,Net-(U5-Pad12)*%
X106172000Y-122428000D03*
%TO.N,Net-(R5-Pad1)*%
X139700000Y-116840000D03*
X151384000Y-132334000D03*
%TO.N,Net-(R7-Pad1)*%
X128524000Y-119888000D03*
X128270000Y-134620000D03*
X128270000Y-146050000D03*
X177292000Y-146050000D03*
%TO.N,Net-(U10-Pad13)*%
X164592000Y-146558000D03*
%TO.N,Net-(U12-Pad6)*%
X87884000Y-115824000D03*
%TO.N,Net-(U12-Pad8)*%
X139446000Y-119126000D03*
%TO.N,Net-(U5-Pad6)*%
X109220000Y-145034000D03*
%TO.N,Net-(U12-Pad11)*%
X159004000Y-107442000D03*
X159004000Y-114300000D03*
X154178000Y-117602000D03*
X157480000Y-120904000D03*
%TO.N,Net-(U11-Pad1)*%
X64262000Y-111760000D03*
X64262000Y-120650000D03*
%TD*%
D15*
%TO.N,Net-(U1-Pad2)*%
X172466000Y-101092000D02*
X176276000Y-101092000D01*
X176276000Y-101092000D02*
X177038000Y-100330000D01*
X177038000Y-100330000D02*
X177038000Y-93726000D01*
X177038000Y-93726000D02*
X180086000Y-90678000D01*
X180086000Y-90678000D02*
X184912000Y-90678000D01*
X184912000Y-90678000D02*
X187198000Y-92964000D01*
X187198000Y-92964000D02*
X187198000Y-145288000D01*
X187198000Y-145288000D02*
X184658000Y-147828000D01*
X184658000Y-147828000D02*
X53086000Y-147828000D01*
X53086000Y-147828000D02*
X50800000Y-145542000D01*
X50800000Y-145542000D02*
X50800000Y-139700000D01*
X52324000Y-138176000D02*
X54356000Y-138176000D01*
X50800000Y-139700000D02*
X52324000Y-138176000D01*
%TO.N,Net-(R1-Pad1)*%
X68326000Y-133096000D02*
X71120000Y-130302000D01*
X71120000Y-130302000D02*
X71628000Y-129794000D01*
X71628000Y-129794000D02*
X71628000Y-119888000D01*
%TO.N,Net-(U1-Pad13)*%
X54356000Y-128016000D02*
X56896000Y-128016000D01*
X56896000Y-128016000D02*
X57658000Y-128778000D01*
X57658000Y-128778000D02*
X57658000Y-139954000D01*
X56896000Y-140716000D02*
X54356000Y-140716000D01*
X57658000Y-139954000D02*
X56896000Y-140716000D01*
%TO.N,Net-(U1-Pad10)*%
X46736000Y-130556000D02*
X45212000Y-130556000D01*
X45212000Y-130556000D02*
X43942000Y-131826000D01*
X43942000Y-131826000D02*
X43942000Y-134874000D01*
X44704000Y-135636000D02*
X46736000Y-135636000D01*
X43942000Y-134874000D02*
X44704000Y-135636000D01*
X46736000Y-135636000D02*
X54356000Y-135636000D01*
%TO.N,Net-(U1-Pad11)*%
X58420000Y-132334000D02*
X59182000Y-133096000D01*
X58420000Y-126238000D02*
X58420000Y-132334000D01*
X59182000Y-133096000D02*
X60706000Y-133096000D01*
X60706000Y-125476000D02*
X59182000Y-125476000D01*
X59182000Y-125476000D02*
X58420000Y-126238000D01*
%TO.N,Net-(U1-Pad12)*%
X51308000Y-130556000D02*
X54356000Y-130556000D01*
X49784000Y-132080000D02*
X51308000Y-130556000D01*
%TO.N,Net-(U2-Pad3)*%
X60706000Y-130556000D02*
X62992000Y-130556000D01*
X62992000Y-130556000D02*
X64262000Y-131826000D01*
X64262000Y-131826000D02*
X64262000Y-134874000D01*
X63500000Y-135636000D02*
X60706000Y-135636000D01*
X64262000Y-134874000D02*
X63500000Y-135636000D01*
X64262000Y-134874000D02*
X64262000Y-135890000D01*
X66548000Y-138176000D02*
X68326000Y-138176000D01*
X64262000Y-135890000D02*
X66548000Y-138176000D01*
%TO.N,Net-(U3-Pad4)*%
X82550000Y-138176000D02*
X79756000Y-138176000D01*
X79756000Y-137922000D02*
X77978000Y-136144000D01*
X79756000Y-138176000D02*
X79756000Y-137922000D01*
X74930000Y-133096000D02*
X77978000Y-136144000D01*
X77978000Y-136144000D02*
X78232000Y-136398000D01*
X74930000Y-133096000D02*
X76200000Y-133096000D01*
X76200000Y-133096000D02*
X78994000Y-130302000D01*
X78994000Y-130302000D02*
X78994000Y-119888000D01*
%TO.N,Net-(U3-Pad10)*%
X82550000Y-130556000D02*
X81280000Y-130556000D01*
X81280000Y-130556000D02*
X79756000Y-132080000D01*
X79756000Y-132080000D02*
X79756000Y-135382000D01*
X82296000Y-135382000D02*
X82550000Y-135636000D01*
X79756000Y-135382000D02*
X82296000Y-135382000D01*
X86360000Y-144780000D02*
X94742000Y-144780000D01*
%TO.N,Net-(U3-Pad8)*%
X89154000Y-125476000D02*
X86614000Y-125476000D01*
X86614000Y-125476000D02*
X85344000Y-126746000D01*
X85344000Y-126746000D02*
X85344000Y-139446000D01*
X84074000Y-140716000D02*
X82550000Y-140716000D01*
X85344000Y-139446000D02*
X84074000Y-140716000D01*
%TO.N,Net-(U4-Pad8)*%
X98044000Y-145034000D02*
X96774000Y-143764000D01*
X106172000Y-145034000D02*
X98044000Y-145034000D01*
X103378000Y-125476000D02*
X104140000Y-125476000D01*
X96774000Y-143764000D02*
X96774000Y-140716000D01*
X107696000Y-129032000D02*
X107696000Y-143510000D01*
X104140000Y-125476000D02*
X107696000Y-129032000D01*
X107696000Y-143510000D02*
X106172000Y-145034000D01*
%TO.N,Net-(U4-Pad10)*%
X89154000Y-138176000D02*
X91948000Y-138176000D01*
X94488000Y-135636000D02*
X96774000Y-135636000D01*
X91948000Y-138176000D02*
X94488000Y-135636000D01*
%TO.N,Net-(U4-Pad11)*%
X96774000Y-133096000D02*
X99822000Y-130048000D01*
X99822000Y-130048000D02*
X99822000Y-128270000D01*
X100076000Y-128016000D02*
X103378000Y-128016000D01*
X99822000Y-128270000D02*
X100076000Y-128016000D01*
%TO.N,+5V*%
X60452000Y-94996000D02*
X57150000Y-94996000D01*
X57150000Y-94996000D02*
X53848000Y-94996000D01*
X53848000Y-94996000D02*
X49530000Y-94996000D01*
X49530000Y-94996000D02*
X48260000Y-96266000D01*
X48260000Y-96266000D02*
X48260000Y-117094000D01*
X54356000Y-123190000D02*
X54356000Y-125476000D01*
X48260000Y-117094000D02*
X54356000Y-123190000D01*
X68326000Y-125476000D02*
X68326000Y-120650000D01*
X68326000Y-120650000D02*
X66040000Y-118364000D01*
X66040000Y-118364000D02*
X56642000Y-118364000D01*
X54356000Y-120650000D02*
X54356000Y-123190000D01*
X56642000Y-118364000D02*
X54356000Y-120650000D01*
X70612000Y-118364000D02*
X68326000Y-120650000D01*
X80010000Y-118364000D02*
X70612000Y-118364000D01*
X82550000Y-125476000D02*
X82550000Y-120904000D01*
X82550000Y-120904000D02*
X80010000Y-118364000D01*
X85090000Y-118364000D02*
X82550000Y-120904000D01*
X93980000Y-118364000D02*
X85090000Y-118364000D01*
X96774000Y-125476000D02*
X96774000Y-121158000D01*
X110998000Y-125476000D02*
X110998000Y-121158000D01*
X108204000Y-118364000D02*
X99314000Y-118364000D01*
X99314000Y-118364000D02*
X96647000Y-121031000D01*
X96774000Y-121158000D02*
X96647000Y-121031000D01*
X96647000Y-121031000D02*
X93980000Y-118364000D01*
X125222000Y-125476000D02*
X125222000Y-121158000D01*
X125222000Y-121158000D02*
X122428000Y-118364000D01*
X122428000Y-118364000D02*
X113538000Y-118364000D01*
X110998000Y-121158000D02*
X110871000Y-121031000D01*
X113538000Y-118364000D02*
X110871000Y-121031000D01*
X110871000Y-121031000D02*
X108204000Y-118364000D01*
X139446000Y-125476000D02*
X139446000Y-121158000D01*
X136652000Y-118364000D02*
X128016000Y-118364000D01*
X128016000Y-118364000D02*
X125222000Y-121158000D01*
X153670000Y-125476000D02*
X153670000Y-121158000D01*
X150876000Y-118364000D02*
X141986000Y-118364000D01*
X141986000Y-118364000D02*
X139319000Y-121031000D01*
X139446000Y-121158000D02*
X139319000Y-121031000D01*
X139319000Y-121031000D02*
X136652000Y-118364000D01*
X167640000Y-125476000D02*
X167640000Y-121158000D01*
X164846000Y-118364000D02*
X156210000Y-118364000D01*
X156210000Y-118364000D02*
X153543000Y-121031000D01*
X153670000Y-121158000D02*
X153543000Y-121031000D01*
X153543000Y-121031000D02*
X150876000Y-118364000D01*
X181102000Y-125476000D02*
X181102000Y-121158000D01*
X181102000Y-121158000D02*
X178308000Y-118364000D01*
X178308000Y-118364000D02*
X170180000Y-118364000D01*
X170180000Y-118364000D02*
X167513000Y-121031000D01*
X167640000Y-121158000D02*
X167513000Y-121031000D01*
X167513000Y-121031000D02*
X164846000Y-118364000D01*
X181102000Y-121158000D02*
X184150000Y-118110000D01*
X184150000Y-118110000D02*
X184150000Y-97790000D01*
X182372000Y-96012000D02*
X180086000Y-96012000D01*
X184150000Y-97790000D02*
X182372000Y-96012000D01*
%TO.N,Net-(U5-Pad12)*%
X108712000Y-131318000D02*
X109474000Y-130556000D01*
X109474000Y-130556000D02*
X110998000Y-130556000D01*
X108712000Y-137160000D02*
X108712000Y-131318000D01*
X109728000Y-138176000D02*
X108712000Y-137160000D01*
X110998000Y-138176000D02*
X109728000Y-138176000D01*
X106172000Y-122428000D02*
X106172000Y-125730000D01*
X109474000Y-129032000D02*
X109474000Y-130556000D01*
X106172000Y-125730000D02*
X109474000Y-129032000D01*
%TO.N,Net-(R5-Pad1)*%
X118618000Y-112522000D02*
X120650000Y-112522000D01*
X120650000Y-112522000D02*
X124968000Y-116840000D01*
X124968000Y-116840000D02*
X139700000Y-116840000D01*
X151384000Y-132334000D02*
X151384000Y-135890000D01*
X149098000Y-138176000D02*
X146050000Y-138176000D01*
X151384000Y-135890000D02*
X149098000Y-138176000D01*
%TO.N,Net-(R7-Pad1)*%
X128524000Y-119888000D02*
X128524000Y-134366000D01*
X128524000Y-134366000D02*
X128270000Y-134620000D01*
X128270000Y-146050000D02*
X131064000Y-146050000D01*
X132297001Y-147283001D02*
X176312999Y-147283001D01*
X131064000Y-146050000D02*
X132297001Y-147283001D01*
X176312999Y-147029001D02*
X176312999Y-147283001D01*
X177292000Y-146050000D02*
X176312999Y-147029001D01*
%TO.N,Net-(U6-Pad6)*%
X139446000Y-138176000D02*
X135636000Y-141986000D01*
X135636000Y-141986000D02*
X135636000Y-143764000D01*
X135636000Y-143764000D02*
X134620000Y-144780000D01*
X134620000Y-144780000D02*
X123698000Y-144780000D01*
X123698000Y-144780000D02*
X119888000Y-140970000D01*
X119888000Y-140970000D02*
X119888000Y-139192000D01*
X118872000Y-138176000D02*
X117602000Y-138176000D01*
X119888000Y-139192000D02*
X118872000Y-138176000D01*
%TO.N,Net-(U7-Pad13)*%
X153670000Y-138176000D02*
X151384000Y-138176000D01*
X151384000Y-138176000D02*
X149352000Y-140208000D01*
X149352000Y-140208000D02*
X149352000Y-143510000D01*
X149352000Y-143510000D02*
X147574000Y-145288000D01*
X147574000Y-145288000D02*
X140716000Y-145288000D01*
X139446000Y-144018000D02*
X139446000Y-140716000D01*
X140716000Y-145288000D02*
X139446000Y-144018000D01*
X146050000Y-125476000D02*
X143256000Y-125476000D01*
X143256000Y-125476000D02*
X142240000Y-126492000D01*
X142240000Y-126492000D02*
X142240000Y-128016000D01*
X142240000Y-128016000D02*
X139446000Y-128016000D01*
%TO.N,Net-(U8-Pad3)*%
X146050000Y-130556000D02*
X148336000Y-130556000D01*
X148336000Y-130556000D02*
X149352000Y-131572000D01*
X149352000Y-131572000D02*
X149352000Y-134620000D01*
X148336000Y-135636000D02*
X146050000Y-135636000D01*
X149352000Y-134620000D02*
X148336000Y-135636000D01*
%TO.N,Net-(U10-Pad13)*%
X181102000Y-128016000D02*
X183134000Y-128016000D01*
X183134000Y-128016000D02*
X185166000Y-130048000D01*
X185166000Y-130048000D02*
X185166000Y-138317002D01*
X185166000Y-138317002D02*
X185166000Y-144018000D01*
X185166000Y-144018000D02*
X182626000Y-146558000D01*
X168530410Y-146558000D02*
X164592000Y-146558000D01*
X175658999Y-139590999D02*
X172941999Y-139590999D01*
X171138010Y-141394988D02*
X171138009Y-143950401D01*
X171138009Y-143950401D02*
X168530410Y-146558000D01*
X182626000Y-146558000D02*
X175658999Y-139590999D01*
X172941999Y-139590999D02*
X171138010Y-141394988D01*
%TO.N,Net-(U10-Pad5)*%
X173482000Y-135636000D02*
X171958000Y-135636000D01*
X171958000Y-135636000D02*
X170688000Y-136906000D01*
X170688000Y-136906000D02*
X170688000Y-143764000D01*
X170688000Y-143764000D02*
X169418000Y-145034000D01*
X169418000Y-145034000D02*
X154940000Y-145034000D01*
X153670000Y-143764000D02*
X153670000Y-140716000D01*
X154940000Y-145034000D02*
X153670000Y-143764000D01*
%TO.N,Net-(U9-Pad10)*%
X160020000Y-138176000D02*
X162814000Y-138176000D01*
X162814000Y-138176000D02*
X163576000Y-137414000D01*
X163576000Y-137414000D02*
X163576000Y-136398000D01*
X164338000Y-135636000D02*
X167640000Y-135636000D01*
X163576000Y-136398000D02*
X164338000Y-135636000D01*
%TO.N,Net-(U10-Pad1)*%
X173482000Y-125476000D02*
X171704000Y-125476000D01*
X171704000Y-125476000D02*
X170688000Y-126492000D01*
X170688000Y-126492000D02*
X170688000Y-129794000D01*
X169926000Y-130556000D02*
X167640000Y-130556000D01*
X170688000Y-129794000D02*
X169926000Y-130556000D01*
%TO.N,Net-(U10-Pad12)*%
X173482000Y-133096000D02*
X176784000Y-133096000D01*
X176784000Y-133096000D02*
X177800000Y-132080000D01*
X177800000Y-132080000D02*
X177800000Y-131064000D01*
X178308000Y-130556000D02*
X181102000Y-130556000D01*
X177800000Y-131064000D02*
X178308000Y-130556000D01*
X173482000Y-128016000D02*
X177800000Y-128016000D01*
X177800000Y-130048000D02*
X178308000Y-130556000D01*
X177800000Y-128016000D02*
X177800000Y-130048000D01*
X173482000Y-133096000D02*
X167640000Y-133096000D01*
%TO.N,Net-(U10-Pad10)*%
X173482000Y-138176000D02*
X177038000Y-138176000D01*
X177038000Y-138176000D02*
X177800000Y-137414000D01*
X177800000Y-137414000D02*
X177800000Y-136652000D01*
X178816000Y-135636000D02*
X181102000Y-135636000D01*
X177800000Y-136652000D02*
X178816000Y-135636000D01*
%TO.N,Net-(U12-Pad1)*%
X171450000Y-94996000D02*
X172466000Y-96012000D01*
X165354000Y-94996000D02*
X171450000Y-94996000D01*
%TO.N,Net-(U12-Pad4)*%
X165354000Y-100838000D02*
X165862000Y-100838000D01*
X168656000Y-103632000D02*
X172466000Y-103632000D01*
X165862000Y-100838000D02*
X168656000Y-103632000D01*
%TO.N,Net-(U12-Pad9)*%
X165717001Y-107297001D02*
X175623001Y-107297001D01*
X165354000Y-106934000D02*
X165717001Y-107297001D01*
X177038000Y-108712000D02*
X180086000Y-108712000D01*
X175623001Y-107297001D02*
X177038000Y-108712000D01*
%TO.N,Net-(U12-Pad12)*%
X167386000Y-115062000D02*
X165354000Y-113030000D01*
X182626000Y-112522000D02*
X180086000Y-115062000D01*
X180086000Y-101092000D02*
X181356000Y-101092000D01*
X182626000Y-102362000D02*
X182626000Y-112522000D01*
X181356000Y-101092000D02*
X182626000Y-102362000D01*
X180086000Y-115062000D02*
X167386000Y-115062000D01*
%TO.N,Net-(U3-Pad3)*%
X89154000Y-135636000D02*
X91694000Y-135636000D01*
X91694000Y-135636000D02*
X93218000Y-134112000D01*
X93218000Y-134112000D02*
X93218000Y-129794000D01*
X94996000Y-128016000D02*
X96774000Y-128016000D01*
X93218000Y-129794000D02*
X94996000Y-128016000D01*
%TO.N,Net-(U12-Pad6)*%
X172466000Y-108712000D02*
X92964000Y-108712000D01*
X92964000Y-108712000D02*
X87884000Y-113792000D01*
X87884000Y-113792000D02*
X87884000Y-115824000D01*
%TO.N,Net-(U12-Pad8)*%
X117602000Y-125476000D02*
X115570000Y-125476000D01*
X115570000Y-125476000D02*
X114300000Y-126746000D01*
X114300000Y-126746000D02*
X114300000Y-134874000D01*
X113538000Y-135636000D02*
X110998000Y-135636000D01*
X114300000Y-134874000D02*
X113538000Y-135636000D01*
X180086000Y-111252000D02*
X176276000Y-111252000D01*
X176276000Y-111252000D02*
X175006000Y-109982000D01*
X175006000Y-109982000D02*
X157480000Y-109982000D01*
X157480000Y-109982000D02*
X150876000Y-116586000D01*
X150876000Y-116586000D02*
X141732000Y-116586000D01*
X141732000Y-116586000D02*
X139446000Y-118872000D01*
X139446000Y-118872000D02*
X139446000Y-119126000D01*
%TO.N,Net-(U5-Pad6)*%
X146050000Y-128016000D02*
X143764000Y-128016000D01*
X143764000Y-128016000D02*
X141986000Y-129794000D01*
X141986000Y-129794000D02*
X141986000Y-134874000D01*
X141224000Y-135636000D02*
X139446000Y-135636000D01*
X141986000Y-134874000D02*
X141224000Y-135636000D01*
X139446000Y-135636000D02*
X135128000Y-135636000D01*
X133713001Y-137050999D02*
X114663001Y-137050999D01*
X135128000Y-135636000D02*
X133713001Y-137050999D01*
X114663001Y-137050999D02*
X113538000Y-138176000D01*
X113538000Y-138176000D02*
X113538000Y-139841002D01*
X113538000Y-139841002D02*
X113538000Y-143764000D01*
X113538000Y-143764000D02*
X112268000Y-145034000D01*
X112268000Y-145034000D02*
X109220000Y-145034000D01*
%TO.N,Net-(U12-Pad11)*%
X153670000Y-128016000D02*
X155702000Y-128016000D01*
X156210000Y-128524000D02*
X156210000Y-134112000D01*
X157734000Y-135636000D02*
X160020000Y-135636000D01*
X156210000Y-134112000D02*
X157734000Y-135636000D01*
X178960999Y-104757001D02*
X160672999Y-104757001D01*
X180086000Y-103632000D02*
X178960999Y-104757001D01*
X160672999Y-104757001D02*
X159004000Y-106426000D01*
X159004000Y-106426000D02*
X159004000Y-107442000D01*
X159004000Y-114300000D02*
X157480000Y-114300000D01*
X157480000Y-114300000D02*
X154178000Y-117602000D01*
X157480000Y-120904000D02*
X157480000Y-121666000D01*
X155829000Y-123317000D02*
X155829000Y-128143000D01*
X157480000Y-121666000D02*
X155829000Y-123317000D01*
X155702000Y-128016000D02*
X155829000Y-128143000D01*
X155829000Y-128143000D02*
X156210000Y-128524000D01*
%TO.N,Net-(U11-Pad1)*%
X63246000Y-128016000D02*
X65532000Y-130302000D01*
X65532000Y-130302000D02*
X65532000Y-134874000D01*
X65532000Y-134874000D02*
X66294000Y-135636000D01*
X66294000Y-135636000D02*
X68326000Y-135636000D01*
X157988000Y-94996000D02*
X157988000Y-94742000D01*
X157988000Y-94742000D02*
X152908000Y-89662000D01*
X152908000Y-89662000D02*
X70612000Y-89662000D01*
X70612000Y-89662000D02*
X64516000Y-95758000D01*
X64516000Y-95758000D02*
X64516000Y-111506000D01*
X64516000Y-111506000D02*
X64262000Y-111760000D01*
X64262000Y-120650000D02*
X64262000Y-126492000D01*
X62992000Y-127762000D02*
X62992000Y-128016000D01*
X64262000Y-126492000D02*
X62992000Y-127762000D01*
X60706000Y-128016000D02*
X62992000Y-128016000D01*
X62992000Y-128016000D02*
X63246000Y-128016000D01*
%TD*%
M02*
