M48
; DRILL file {KiCad (5.1.6)-1} date 12/22/20 11:19:13
; FORMAT={-:-/ absolute / metric / decimal}
; #@! TF.CreationDate,2020-12-22T11:19:13+01:00
; #@! TF.GenerationSoftware,Kicad,Pcbnew,(5.1.6)-1
; #@! TF.FileFunction,Plated,1,2,PTH
FMAT,2
METRIC
T1C0.400
T2C0.800
T3C1.000
%
G90
G05
T1
X49.784Y-132.08
X64.262Y-111.76
X64.262Y-120.65
X71.628Y-119.888
X78.994Y-119.888
X86.36Y-144.78
X87.884Y-115.824
X94.742Y-144.78
X106.172Y-122.428
X109.22Y-145.034
X128.27Y-134.62
X128.27Y-146.05
X128.524Y-119.888
X139.446Y-119.126
X139.7Y-116.84
X151.384Y-132.334
X154.178Y-117.602
X157.48Y-120.904
X159.004Y-107.442
X159.004Y-114.3
X164.592Y-146.558
X177.292Y-146.05
T2
X74.93Y-125.476
X74.93Y-128.016
X74.93Y-130.556
X74.93Y-133.096
X74.93Y-135.636
X74.93Y-138.176
X74.93Y-140.716
X82.55Y-125.476
X82.55Y-128.016
X82.55Y-130.556
X82.55Y-133.096
X82.55Y-135.636
X82.55Y-138.176
X82.55Y-140.716
X151.13Y-104.394
X151.13Y-112.014
X139.192Y-104.902
X139.192Y-112.522
X172.466Y-96.012
X172.466Y-98.552
X172.466Y-101.092
X172.466Y-103.632
X172.466Y-106.172
X172.466Y-108.712
X172.466Y-111.252
X180.086Y-96.012
X180.086Y-98.552
X180.086Y-101.092
X180.086Y-103.632
X180.086Y-106.172
X180.086Y-108.712
X180.086Y-111.252
X103.378Y-125.476
X103.378Y-128.016
X103.378Y-130.556
X103.378Y-133.096
X103.378Y-135.636
X103.378Y-138.176
X103.378Y-140.716
X110.998Y-125.476
X110.998Y-128.016
X110.998Y-130.556
X110.998Y-133.096
X110.998Y-135.636
X110.998Y-138.176
X110.998Y-140.716
X97.282Y-104.902
X97.282Y-112.522
X60.706Y-125.476
X60.706Y-128.016
X60.706Y-130.556
X60.706Y-133.096
X60.706Y-135.636
X60.706Y-138.176
X60.706Y-140.716
X68.326Y-125.476
X68.326Y-128.016
X68.326Y-130.556
X68.326Y-133.096
X68.326Y-135.636
X68.326Y-138.176
X68.326Y-140.716
X118.618Y-104.902
X118.618Y-112.522
X173.482Y-125.476
X173.482Y-128.016
X173.482Y-130.556
X173.482Y-133.096
X173.482Y-135.636
X173.482Y-138.176
X173.482Y-140.716
X181.102Y-125.476
X181.102Y-128.016
X181.102Y-130.556
X181.102Y-133.096
X181.102Y-135.636
X181.102Y-138.176
X181.102Y-140.716
X89.154Y-125.476
X89.154Y-128.016
X89.154Y-130.556
X89.154Y-133.096
X89.154Y-135.636
X89.154Y-138.176
X89.154Y-140.716
X96.774Y-125.476
X96.774Y-128.016
X96.774Y-130.556
X96.774Y-133.096
X96.774Y-135.636
X96.774Y-138.176
X96.774Y-140.716
X76.2Y-104.902
X76.2Y-112.522
X146.05Y-125.476
X146.05Y-128.016
X146.05Y-130.556
X146.05Y-133.096
X146.05Y-135.636
X146.05Y-138.176
X146.05Y-140.716
X153.67Y-125.476
X153.67Y-128.016
X153.67Y-130.556
X153.67Y-133.096
X153.67Y-135.636
X153.67Y-138.176
X153.67Y-140.716
X46.736Y-125.476
X46.736Y-128.016
X46.736Y-130.556
X46.736Y-133.096
X46.736Y-135.636
X46.736Y-138.176
X46.736Y-140.716
X54.356Y-125.476
X54.356Y-128.016
X54.356Y-130.556
X54.356Y-133.096
X54.356Y-135.636
X54.356Y-138.176
X54.356Y-140.716
X160.02Y-125.476
X160.02Y-128.016
X160.02Y-130.556
X160.02Y-133.096
X160.02Y-135.636
X160.02Y-138.176
X160.02Y-140.716
X167.64Y-125.476
X167.64Y-128.016
X167.64Y-130.556
X167.64Y-133.096
X167.64Y-135.636
X167.64Y-138.176
X167.64Y-140.716
X131.826Y-125.476
X131.826Y-128.016
X131.826Y-130.556
X131.826Y-133.096
X131.826Y-135.636
X131.826Y-138.176
X131.826Y-140.716
X139.446Y-125.476
X139.446Y-128.016
X139.446Y-130.556
X139.446Y-133.096
X139.446Y-135.636
X139.446Y-138.176
X139.446Y-140.716
X117.602Y-125.476
X117.602Y-128.016
X117.602Y-130.556
X117.602Y-133.096
X117.602Y-135.636
X117.602Y-138.176
X117.602Y-140.716
X125.222Y-125.476
X125.222Y-128.016
X125.222Y-130.556
X125.222Y-133.096
X125.222Y-135.636
X125.222Y-138.176
X125.222Y-140.716
T3
X57.15Y-99.568
X157.988Y-94.996
X133.858Y-94.996
X165.354Y-100.838
X138.938Y-94.996
X60.452Y-94.996
X57.15Y-94.996
X151.384Y-94.996
X97.282Y-94.996
X165.354Y-113.03
X113.792Y-94.996
X118.618Y-94.996
X53.848Y-94.996
X165.354Y-106.934
X92.202Y-94.996
X76.2Y-94.996
X165.354Y-94.996
X70.866Y-94.996
X53.848Y-99.568
X60.452Y-99.568
T0
M30
